#!OML:ASF F:\VICON\USERDATA\INSTALL\rory3\rory3.ASF
:FULLY-SPECIFIED
:DEGREES
45
root -0.14322519881899703 18.15353821423567 12.656990107667976 -3.441039804924044 -2.5217874311250124 -6.84887629085436
lfemur -25.90056724569315 3.63031752496826 -12.713388971392895
ltibia 64.66976983477932
lfoot -5.910817141709041 -0.09037294690286979
ltoes -4.75232111110055
rfemur -2.934739142957529 6.870343325656935 34.2211482821925
rtibia 27.342181889004756
rfoot -18.094052275409386 -6.929765604128581
rtoes 7.718607639814973
lowerback 10.118911607028647 1.3389504476299363 5.869781096412299
upperback 0.5297026394197506 2.590456535291226 2.3709531075110073
thorax -5.0336374964447845 1.167255121197194 -1.1296843019440121
lowerneck -16.31588330374901 -3.0426165943851236 -1.6750109619902738
upperneck 21.214671158883753 -3.975070777200507 0.889931533885301
head 9.45011274426848 -1.8922146120874848 0.06530922125382928
lclavicle -2.103327542686601e-15 7.68782535382835e-16
lhumerus -33.8626974297708 -0.4791360866648624 84.66704076129223
lradius 26.466173318831796
lwrist 6.239702645733354
lhand -26.943807032697457 23.367378823890125
lfingers 7.12502
lthumb -0.36574938332922124 53.34639509362091
rclavicle -2.103327542686601e-15 7.68782535382835e-16
rhumerus -26.387482042348587 -14.084222561958693 -81.2800448956585
rradius 24.770550693087845
rwrist 4.3693756173496565
rhand -17.669608089939672 20.421412408820746
rfingers 7.12502
rthumb 8.5891403816879 -9.376958055407306
46
root -0.14131978284507857 18.091770224467574 12.502302992396785 -2.910801884453142 -3.364994396144304 -7.583956151461386
lfemur -28.344639566740568 2.5691151357784805 -12.177247906251772
ltibia 54.78714390947408
lfoot -6.651464214351419 2.8809148988042868
ltoes -4.027686622177792
rfemur -0.9001896991781049 6.921959632485359 34.84376230908791
rtibia 25.44595056338049
rfoot -19.899128888523805 -7.522899894464567
rtoes 7.287014303494128
lowerback 10.0633098272528 1.6683201115461759 6.69556360951361
upperback 0.46988872285433847 3.1200975848839 2.288451057773458
thorax -5.028345747768685 1.408730969052394 -1.8225290672935195
lowerneck -16.575015533281807 -3.052800453215217 -1.6041729464077386
upperneck 20.893152270196232 -3.997967044192967 0.8568414779891451
head 9.367090136938366 -1.896668330582942 0.03840206678034257
lclavicle -2.6100415795172197e-15 3.018744046122787e-16
lhumerus -35.036883767462264 -0.07847393330766461 84.58517807192523
lradius 26.15258673413874
lwrist 6.187310948597487
lhand -27.088791314866814 23.098885401768058
lfingers 7.12502
lthumb -0.5057902851863195 53.074113599659746
rclavicle -2.6100415795172197e-15 3.018744046122787e-16
rhumerus -25.328817280392308 -11.933859101157111 -82.01083412832489
rradius 26.062070226153015
rwrist 2.599461703477801
rhand -18.076908210508325 21.461137316796872
rfingers 7.12502
rthumb 8.196055343686512 -8.356105837248334
47
root -0.11735141563950385 18.031914722918547 13.314675614021574 -2.1560553623134737 -3.984848095182007 -8.077098604900485
lfemur -28.73315771338006 0.5900625327972304 -10.79576694658861
ltibia 42.79313324070611
lfoot -6.439061613320739 6.120508030993507
ltoes -3.3856728593348535
rfemur 2.056750464866335 7.084370231757574 35.62449220289801
rtibia 23.763930459427804
rfoot -20.91398218091569 -7.910563114607349
rtoes 6.677808185427135
lowerback 9.891189739580275 2.045090017502218 7.531518175570733
upperback 0.4127063697735119 3.6979654243406923 2.2992911013858492
thorax -4.938995301146105 1.6765593252337396 -2.242900571082957
lowerneck -16.83638211875628 -3.0542745904233923 -1.4997471961284428
upperneck 20.62228543288877 -4.004024571043999 0.8695526486783565
head 9.308262477086846 -1.8955501635488572 0.02776687481934531
lclavicle -2.2780714181472557e-15 6.073780828960547e-16
lhumerus -35.75769390767892 0.7630720497451875 84.55232801284002
lradius 25.839634805411272
lwrist 5.876871436697608
lhand -27.131631010267736 23.132711524848062
lfingers 7.12502
lthumb -0.5471698261572056 53.104913099863644
rclavicle -2.2780714181472557e-15 6.073780828960547e-16
rhumerus -24.148727215942888 -10.024872628922717 -82.32121866613362
rradius 27.325816829943115
rwrist 1.4548235783836736
rhand -18.327844186882597 22.78007955945838
rfingers 7.12502
rthumb 7.9538612298694 -7.0512749993371235
48
root -0.068918868953453 17.965266784257647 14.533273697071367 -1.310728959243599 -4.539166924911897 -8.423895353765909
lfemur -27.890068073155486 -2.072798207264578 -8.860278775890178
ltibia 29.796429359252336
lfoot -6.0732050687652395 9.216555117846287
ltoes -3.1669246909664284
rfemur 5.769574500066504 7.344324526134217 36.44188231751105
rtibia 22.231697311793923
rfoot -21.64676232866707 -8.001942207119761
rtoes 5.418659442873715
lowerback 9.626134532507065 2.4710532661270252 8.293833346388038
upperback 0.35600865051885483 4.320112426521654 2.338705020360248
thorax -4.798299985685799 1.9703682758549022 -2.5108396892925358
lowerneck -17.08676742323277 -3.0515125160562504 -1.3744792151638623
upperneck 20.435849993654365 -4.005103099490048 0.9244368040228579
head 9.281989642133409 -1.8923703078845215 0.028052263414521064
lclavicle -1.5631673737563655e-15 1.2656982445447965e-15
lhumerus -36.30420713317602 1.8829828842294285 84.53998275002492
lradius 25.387701819225846
lwrist 5.378209691378436
lhand -27.054120223408 23.437531779867765
lfingers 7.12502
lthumb -0.4723079929014842 53.408317416480415
rclavicle -1.5631673737563655e-15 1.2656982445447965e-15
rhumerus -22.938156885250823 -8.495632552393246 -82.41654756570185
rradius 28.498296479770545
rwrist 0.7773662267630499
rhand -18.452233571239496 23.783622235721232
rfingers 7.12502
rthumb 7.833792327722468 -6.056090721885157
